<?xml version="1.0" encoding="UTF-8"?>
<!DOCTYPE svg PUBLIC "-//W3C//DTD SVG 1.1//EN" "http://www.w3.org/Graphics/SVG/1.1/DTD/svg11.dtd">
<!-- Creator: CorelDRAW -->
<svg xmlns="http://www.w3.org/2000/svg" xml:space="preserve" width="210mm" height="297mm" style="shape-rendering:geometricPrecision; text-rendering:geometricPrecision; image-rendering:optimizeQuality; fill-rule:evenodd; clip-rule:evenodd"
viewBox="0 0 210 297"
 xmlns:xlink="http://www.w3.org/1999/xlink">
 <defs>
  <style type="text/css">
   <![CDATA[
    .fil0 {fill:#fff}
    .fil1 {fill:#fff}
   ]]>
  </style>
 </defs>
 <g id="Camada_x0020_1">
  <metadata id="CorelCorpID_0Corel-Layer"/>
  <g id="_94844560">
   <path id="_133894208" class="fil0" d="M92.5433 138.512c0,-0.7137 -0.517,-1.0702 -1.5514,-1.0702l-1.0221 0 0 2.1345 1.0221 0c1.0344,0 1.5514,-0.3546 1.5514,-1.0643zm-0.4089 -3.4695c0,-0.4008 -0.1322,-0.6672 -0.3969,-0.7997 -0.2644,-0.1322 -0.6775,-0.1985 -1.2382,-0.1985l-0.5295 0 0 1.9962 0.5413 0c0.5732,0 0.9859,-0.0658 1.2387,-0.1983 0.2566,-0.1322 0.3846,-0.3988 0.3846,-0.7997zm2.9343 3.5717c0,0.7176 -0.2465,1.291 -0.7398,1.7196 -0.4888,0.4287 -1.1744,0.6436 -2.0561,0.6436l-4.8164 0 0 -8.3342 4.0286 0c0.5214,0 0.9741,0.0501 1.3591,0.1505 0.3885,0.1005 0.7012,0.2385 0.9379,0.4147 0.2365,0.1729 0.4127,0.377 0.5293,0.6135 0.1159,0.2367 0.1739,0.4953 0.1741,0.7756 0,0.3046 -0.0598,0.5873 -0.1804,0.8479 -0.1204,0.2566 -0.2702,0.4687 -0.4506,0.6373 -0.1767,0.1646 -0.3551,0.2807 -0.5351,0.3489 0.5688,0.2242 1.002,0.5089 1.2986,0.8535 0.3003,0.341 0.4508,0.784 0.4508,1.3291z"/>
   <path id="_133894136" class="fil0" d="M101.707 135.187l-0.7997 2.1706c-0.3289,-0.3126 -0.6612,-0.4687 -0.9984,-0.4687 -0.3046,0 -0.5692,0.1041 -0.7934,0.3122 -0.2209,0.2048 -0.4328,0.5855 -0.6374,1.1425l0 2.634 -2.1646 0 0 -6.1213 2.1646 0 0 1.479c0.1362,-0.3647 0.3765,-0.7193 0.7215,-1.0641 0.3446,-0.3488 0.7495,-0.523 1.2144,-0.523 0.2448,0 0.4572,0.0362 0.6374,0.1081 0.1844,0.0721 0.4028,0.1826 0.6556,0.3307z"/>
   <path id="_133894064" class="fil0" d="M105.563 139.498l0 -1.4488c-0.5132,0.2083 -0.8882,0.3966 -1.1244,0.5649 -0.2365,0.1642 -0.3547,0.3891 -0.3547,0.6731 0,0.2048 0.0581,0.3609 0.1742,0.4694 0.1202,0.1081 0.2586,0.1624 0.4147,0.1624 0.1485,0 0.2948,-0.04 0.4391,-0.1204 0.1485,-0.0844 0.2987,-0.1842 0.4511,-0.3006zm3.0125 1.1727c-0.3171,0.1241 -0.6094,0.2242 -0.8779,0.3003 -0.2688,0.0762 -0.5913,0.1144 -0.9683,0.1144 -0.3566,0 -0.6054,-0.0621 -0.7454,-0.1867 -0.1405,-0.1278 -0.2405,-0.2823 -0.3008,-0.4627 -0.2325,0.1884 -0.4909,0.3445 -0.7756,0.4689 -0.2847,0.1204 -0.6574,0.1805 -1.1181,0.1805 -0.4451,0 -0.806,-0.0762 -1.0827,-0.2287 -0.2726,-0.1561 -0.4649,-0.3504 -0.5772,-0.5831 -0.1081,-0.2365 -0.1624,-0.4788 -0.1624,-0.7273 0,-0.377 0.0943,-0.6874 0.2827,-0.9322 0.1923,-0.2485 0.4489,-0.4508 0.7698,-0.6074 0.3205,-0.1561 0.7454,-0.3184 1.2747,-0.487 0.3006,-0.096 0.527,-0.1684 0.6793,-0.2164 0.1563,-0.052 0.2725,-0.092 0.3491,-0.1204 0.0757,-0.0279 0.1556,-0.0641 0.2403,-0.1083 0,-0.2966 -0.0603,-0.5288 -0.1803,-0.6974 -0.1206,-0.1684 -0.3809,-0.2526 -0.7818,-0.2526 -0.4732,0 -0.912,0.1045 -1.3167,0.3127 -0.4051,0.2085 -0.776,0.4774 -1.1125,0.8059l0 -1.6594c0.2686,-0.1925 0.5589,-0.3491 0.8716,-0.469 0.3128,-0.1246 0.6393,-0.2166 0.9803,-0.2769 0.3408,-0.0601 0.6854,-0.09 1.0344,-0.09 0.8859,0 1.551,0.1722 1.996,0.517 0.4489,0.3407 0.6731,0.8117 0.6736,1.4131l0 2.3627c0,0.2246 0.02,0.3932 0.06,0.5056 0.0442,0.1081 0.1224,0.1623 0.2345,0.1623 0.1362,0 0.3205,-0.058 0.5534,-0.1746l0 1.1367z"/>
   <path id="_133893992" class="fil0" d="M114.041 139.191c0,0.5612 -0.2065,1.0183 -0.6192,1.3709 -0.4089,0.3489 -1.0183,0.5233 -1.8281,0.5233 -0.4531,0 -0.8557,-0.04 -1.2086,-0.1202 -0.3526,-0.0842 -0.7378,-0.2028 -1.1543,-0.3551l0 -1.539c0.3647,0.2085 0.6811,0.3666 0.95,0.4752 0.2682,0.1081 0.5628,0.1623 0.8837,0.1623 0.5413,0 0.8117,-0.1485 0.8117,-0.445 0,-0.1001 -0.04,-0.1885 -0.1201,-0.2649 -0.0766,-0.0799 -0.2126,-0.1679 -0.4089,-0.2646 -0.1923,-0.1001 -0.4509,-0.218 -0.7754,-0.3547 -0.4013,-0.1762 -0.7416,-0.4126 -1.0225,-0.7092 -0.2805,-0.2966 -0.421,-0.6595 -0.421,-1.0882 0,-0.3049 0.092,-0.5974 0.2767,-0.8783 0.1883,-0.2803 0.471,-0.509 0.8479,-0.6854 0.3765,-0.1804 0.8317,-0.2704 1.3647,-0.2704 0.1282,0 0.291,0.0098 0.4875,0.0299 0.2001,0.0161 0.4504,0.0623 0.7512,0.1385 0.3046,0.0761 0.5936,0.1842 0.8658,0.3247l0 1.4971c-0.1279,-0.0762 -0.2364,-0.14 -0.3247,-0.1923 -0.0841,-0.0523 -0.1985,-0.1105 -0.3427,-0.1746 -0.1441,-0.0639 -0.3147,-0.1202 -0.5112,-0.1682 -0.1923,-0.0522 -0.3908,-0.0782 -0.5952,-0.0784 -0.2483,0 -0.4187,0.0485 -0.5111,0.1445 -0.0923,0.0963 -0.138,0.1925 -0.138,0.2885 0,0.1005 0.048,0.1943 0.1442,0.2828 0.0961,0.0839 0.3109,0.1904 0.6436,0.3186 0.4808,0.1847 0.8654,0.3747 1.1543,0.5713 0.2886,0.1922 0.4927,0.4048 0.6133,0.6373 0.1241,0.2327 0.186,0.5069 0.1864,0.8236z"/>
   <path id="_133893920" class="fil0" d="M117.493 140.977l-2.1706 0 0 -6.1213 2.1706 0 0 6.1213zm-0.1742 -7.5343c0,0.2524 -0.0904,0.467 -0.2709,0.6432 -0.1804,0.1766 -0.395,0.2646 -0.6431,0.2646 -0.1686,0 -0.3229,-0.0399 -0.4632,-0.1199 -0.1362,-0.0802 -0.2447,-0.1887 -0.3247,-0.3247 -0.0804,-0.1405 -0.1204,-0.2948 -0.1204,-0.4632 0,-0.2485 0.0885,-0.4627 0.2647,-0.6435 0.1762,-0.1805 0.3908,-0.2705 0.6436,-0.2705 0.2481,0 0.4627,0.09 0.6431,0.2705 0.1805,0.1804 0.2709,0.395 0.2709,0.6435z"/>
   <polygon id="_133893848" class="fil0" points="121.263,140.977 119.092,140.977 119.092,132.643 121.263,132.643 "/>
   <path id="_133893776" class="fil0" d="M136.999 84.7207l0.8327 5.0579 -2.9455 5.6347c0,0 -1.1314,-2.3904 -3.0092,-3.7135 -1.5824,-1.1153 -2.6137,-1.3571 -4.226,-1.0248 -2.0702,0.4269 -4.4179,2.9026 -5.4423,5.9547 -1.226,3.6521 -1.238,5.4196 -1.2807,7.0429 -0.0683,2.603 0.3417,4.1407 0.3417,4.1407 0,0 -1.7879,-3.3079 -1.7713,-8.1532 0.0113,-3.4579 0.5547,-6.5945 2.1552,-9.6895 1.408,-2.7211 3.5002,-4.3537 5.3573,-4.5456 1.9199,-0.199 3.4375,0.7269 4.6099,1.7287 1.2307,1.0512 2.4757,3.3509 2.4757,3.3509l2.9025 -5.7839z"/>
   <path id="_133893704" class="fil0" d="M137.362 113.341c0,0 -1.3024,2.3265 -2.113,3.2226 -0.8116,0.8964 -2.2624,2.4759 -4.0554,3.266 -1.7926,0.7886 -2.7321,0.9386 -4.5034,0.7678 -1.7694,-0.1702 -3.4148,-1.1947 -3.9911,-1.6226 -0.5762,-0.4263 -2.0487,-1.6856 -2.881,-2.8589 -0.8325,-1.174 -2.1343,-3.5221 -2.1343,-3.5221 0,0 0.7256,2.3528 1.1791,3.3513 0.2611,0.5739 1.0639,2.3318 2.2037,3.8622 1.0626,1.4279 3.1267,3.885 6.264,4.4391 3.1374,0.5554 5.2931,-0.8533 5.8266,-1.195 0.5337,-0.3408 1.6576,-1.2823 2.3691,-2.0433 0.743,-0.7946 1.4456,-1.8087 1.8355,-2.4165 0.2845,-0.4446 0.747,-1.3448 0.747,-1.3448l-0.7468 -3.9058z"/>
   <polygon id="_133893632" class="fil1" points="83.1886,84.944 90.2811,109.06 97.374,84.944 102.51,84.944 90.7704,124.565 90.2811,124.565 82.9438,100.01 75.6061,124.565 75.1173,124.565 63.3778,84.944 68.5136,84.944 75.6061,109.06 80.4,92.8199 78.0523,84.944 "/>
   <path id="_133893560" class="fil1" d="M117.094 111.848c0,3.5873 -0.954,6.6039 -2.8616,9.0496 -1.908,2.4451 -4.3783,3.6675 -7.4107,3.6675 -2.2834,0 -4.2725,-0.7255 -5.9681,-2.1764 -1.6954,-1.4511 -2.9514,-3.4152 -3.7665,-5.894l4.011 -1.6626c0.5878,1.5003 1.3622,2.6827 2.3243,3.5461 0.962,0.8637 2.0949,1.2954 3.3993,1.2954 1.3694,0 2.5273,-0.7655 3.4732,-2.2979 0.946,-1.5326 1.4187,-3.3752 1.4187,-5.5277 0,-2.3813 -0.506,-4.2234 -1.5165,-5.5276 -1.1746,-1.5324 -3.0172,-2.299 -5.528,-2.299l-1.956 0 0 -2.3477 6.8482 -11.838 -8.2669 0 -2.2993 3.913 -1.4671 0 0 -8.8045 19.0772 0 0 2.3971 -7.2399 12.4728c2.5437,0.816 4.4674,2.3 5.7713,4.4527 1.3042,2.1521 1.9574,4.6783 1.9574,7.5812z"/>
   <path id="_94844488" class="fil0" d="M142.23 85.8947c0.5065,0 0.7381,0.1404 0.7381,0.4919 0,0.3375 -0.2316,0.4569 -0.724,0.4569l-0.4569 0 0 -0.9488 0.4428 0zm0.0985 -0.3518l-1.0824 0 0 2.8683 0.5411 0 0 -1.2233 0.5342 0 0.583 1.2233 0.605 0 -0.6398 -1.3075c0.4145,-0.0842 0.6539,-0.3656 0.6539,-0.7731 0,-0.5206 -0.394,-0.7877 -1.195,-0.7877zm2.1302 1.5041c0,0.5837 -0.2253,1.1248 -0.6398,1.5257 -0.4363,0.422 -0.9777,0.6467 -1.5748,0.6467 -0.5625,0 -1.1179,-0.232 -1.5322,-0.6537 -0.4151,-0.4218 -0.6469,-0.9631 -0.6469,-1.5393 0,-0.5768 0.2387,-1.1391 0.6681,-1.575 0.4002,-0.4074 0.9415,-0.6253 1.5322,-0.6253 0.6043,0 1.1456,0.2249 1.5679,0.6539 0.4073,0.4073 0.6255,0.9558 0.6255,1.567zm-2.2003 -2.5514c-0.6822,0 -1.2937,0.2461 -1.7577,0.7171 -0.4915,0.4993 -0.7658,1.1458 -0.7658,1.8137 0,0.6677 0.26,1.2863 0.7383,1.7714 0.4844,0.4919 1.1099,0.7588 1.7852,0.7588 0.661,0 1.3006,-0.2669 1.7992,-0.7519 0.4784,-0.4641 0.7383,-1.0824 0.7383,-1.7783 0,-0.6753 -0.2671,-1.3075 -0.7311,-1.7787 -0.4853,-0.4922 -1.1179,-0.7521 -1.8064,-0.7521z"/>
  </g>
 </g>
</svg>
